static_grf.mot
version=1
nRows=25
nColumns 19
inDegrees=yes
endheader
time	1_ground_force_vx	1_ground_force_vy	1_ground_force_vz	1_ground_force_px	1_ground_force_py	1_ground_force_pz	1_ground_torque_x	1_ground_torque_y	1_ground_torque_z	2_ground_force_vx	2_ground_force_vy	2_ground_force_vz	2_ground_force_px	2_ground_force_py	2_ground_force_pz	2_ground_torque_x	2_ground_torque_y	2_ground_torque_z
            0.005000	            4.300289	          268.866062	          -19.631164	           -0.340125	            0.006205	           -0.405653	            0.001276	            0.079765	           -0.005824	           -6.393704	          294.353222	           23.672255	           -0.306194	            0.005389	           -0.700687	            0.021104	           -0.971580	           -0.078136
            0.005500	            4.391242	          269.768361	          -19.856806	           -0.339811	            0.006205	           -0.405671	            0.001967	            0.120812	           -0.008893	           -6.299963	          294.353225	           23.766071	           -0.306509	            0.005388	           -0.700751	            0.021167	           -0.988996	           -0.079852
            0.006000	            4.254168	          269.767548	          -19.673041	           -0.339629	            0.006204	           -0.405504	            0.001636	            0.103751	           -0.007566	           -6.016226	          293.617784	           23.716395	           -0.306428	            0.005388	           -0.700546	            0.021093	           -1.029450	           -0.083152
            0.006500	            4.529390	          268.866303	          -19.677589	           -0.340217	            0.006208	           -0.406356	            0.002096	            0.124394	           -0.009104	           -6.298614	          293.984776	           23.811685	           -0.306350	            0.005389	           -0.700905	            0.020798	           -0.970759	           -0.078628
            0.007000	            4.713038	          269.226280	          -19.538930	           -0.340029	            0.006206	           -0.405848	            0.003106	            0.177420	           -0.012876	           -6.067666	          294.906158	           23.861799	           -0.306236	            0.005389	           -0.700810	            0.020816	           -1.011698	           -0.081860
            0.007500	            4.483563	          269.406864	          -19.629300	           -0.339872	            0.006204	           -0.405488	            0.001842	            0.110688	           -0.008065	           -6.438519	          293.800296	           23.764160	           -0.306657	            0.005386	           -0.700437	            0.020887	           -0.953110	           -0.077093
            0.008000	            4.529507	          267.604610	          -19.728855	           -0.340437	            0.006208	           -0.406305	            0.002262	            0.133646	           -0.009853	           -6.113934	          294.722518	           23.673449	           -0.306162	            0.005389	           -0.700728	            0.020527	           -0.989509	           -0.079482
            0.008500	            4.529828	          269.586383	          -19.445217	           -0.339657	            0.006204	           -0.405359	            0.001719	            0.102279	           -0.007377	           -6.206887	          294.537369	           23.860544	           -0.306454	            0.005388	           -0.700706	            0.021419	           -1.016385	           -0.082338
            0.009000	            4.667474	          268.324716	          -19.496825	           -0.340267	            0.006205	           -0.405791	            0.002318	            0.133259	           -0.009683	           -6.298634	          293.984944	           23.764757	           -0.306937	            0.005385	           -0.700460	            0.019948	           -0.931051	           -0.075263
            0.009500	            4.529456	          268.505772	          -19.679134	           -0.339933	            0.006206	           -0.405859	            0.002428	            0.143949	           -0.010550	           -6.067105	          294.722854	           23.626501	           -0.306550	            0.005389	           -0.700920	            0.020043	           -0.973646	           -0.078052
            0.010000	            4.391277	          268.326629	          -19.954702	           -0.340383	            0.006207	           -0.406075	            0.002061	            0.125933	           -0.009365	           -5.971349	          294.170269	           23.765275	           -0.306683	            0.005386	           -0.700480	            0.020054	           -0.987951	           -0.079814
            0.010500	            4.758914	          269.045993	          -19.539817	           -0.339833	            0.006204	           -0.405466	            0.001848	            0.104491	           -0.007589	           -6.299340	          294.169419	           23.671558	           -0.306700	            0.005388	           -0.700799	            0.019913	           -0.929902	           -0.074828
            0.011000	            4.712666	          268.145669	          -19.772847	           -0.340031	            0.006207	           -0.406072	            0.003567	            0.202976	           -0.014967	           -6.346128	          294.168748	           23.812362	           -0.306894	            0.005386	           -0.700479	            0.019804	           -0.917979	           -0.074309
            0.011500	            4.666790	          268.325896	          -19.771961	           -0.339920	            0.006205	           -0.405697	            0.002052	            0.117979	           -0.008693	           -5.974713	          295.091307	           23.674704	           -0.306964	            0.005386	           -0.700768	            0.020019	           -0.988727	           -0.079324
            0.012000	            4.483353	          268.686392	          -19.769960	           -0.340144	            0.006205	           -0.405771	            0.002671	            0.160049	           -0.011776	           -6.067708	          294.906493	           23.767943	           -0.306901	            0.005386	           -0.700688	            0.018832	           -0.915307	           -0.073769
            0.012500	            4.391568	          269.227201	          -19.767413	           -0.339756	            0.006203	           -0.405195	            0.001306	            0.080048	           -0.005877	           -5.923232	          293.802658	           23.623156	           -0.307355	            0.005384	           -0.700505	            0.019950	           -0.989537	           -0.079564
            0.013000	            4.621160	          267.784924	          -19.728310	           -0.340776	            0.006207	           -0.406133	            0.002016	            0.116835	           -0.008608	           -6.111858	          294.169426	           23.859191	           -0.307391	            0.005385	           -0.700734	            0.020252	           -0.974732	           -0.079058
            0.013500	            4.620654	          268.686811	          -19.862013	           -0.339704	            0.006206	           -0.405787	            0.002643	            0.153696	           -0.011362	           -6.115222	          295.090465	           23.768619	           -0.306905	            0.005388	           -0.701213	            0.020071	           -0.968513	           -0.078011
            0.014000	            4.759159	          268.324734	          -19.497053	           -0.339961	            0.006204	           -0.405510	            0.002965	            0.167187	           -0.012148	           -5.973343	          294.722691	           23.767246	           -0.306995	            0.005386	           -0.700539	            0.019790	           -0.976418	           -0.078741
            0.014500	            4.621436	          268.144865	          -19.589196	           -0.340071	            0.006206	           -0.405839	            0.001961	            0.113804	           -0.008314	           -5.737141	          294.171449	           23.671319	           -0.307330	            0.005385	           -0.700611	            0.018931	           -0.970681	           -0.078109
            0.015000	            4.437510	          268.686383	          -19.769846	           -0.340019	            0.006203	           -0.405284	            0.002144	            0.129828	           -0.009553	           -6.021605	          295.091472	           23.580867	           -0.307107	            0.005387	           -0.700961	            0.019027	           -0.932436	           -0.074511
            0.015500	            4.758638	          268.686051	          -19.678931	           -0.340110	            0.006204	           -0.405339	            0.002201	            0.124285	           -0.009103	           -5.928487	          295.275343	           23.769197	           -0.307552	            0.005386	           -0.701105	            0.020039	           -0.998059	           -0.080342
            0.016000	            4.667099	          268.505602	          -19.633620	           -0.340075	            0.006205	           -0.405577	            0.001039	            0.059754	           -0.004369	           -5.880973	          295.091310	           23.768520	           -0.307554	            0.005385	           -0.700835	            0.018483	           -0.927403	           -0.074699
            0.016500	            4.758934	          267.063691	          -19.685887	           -0.340761	            0.006209	           -0.406604	            0.002235	            0.125438	           -0.009246	           -5.927220	          294.907503	           23.627098	           -0.307604	            0.005384	           -0.700816	            0.018512	           -0.921070	           -0.073793
            0.017000	            5.033876	          268.325377	          -19.635303	           -0.340054	            0.006204	           -0.405460	            0.003354	            0.178761	           -0.013081	           -5.836096	          295.643795	           23.817399	           -0.306972	            0.005388	           -0.701086	            0.017889	           -0.906223	           -0.073006
